<?xml version="1.0" standalone="no"?>
<!DOCTYPE svg PUBLIC "-//W3C//DTD SVG 20010904//EN"
 "http://www.w3.org/TR/2001/REC-SVG-20010904/DTD/svg10.dtd">
<svg version="1.0"
	xmlns="http://www.w3.org/2000/svg"
 width="1080.000000pt" height="1080.000000pt" viewBox="0 0 1080.000000 1080.000000"
 preserveAspectRatio="xMidYMid meet">
	<g transform="translate(0.000000,1080.000000) scale(0.100000,-0.100000)"
fill="#000000" stroke="none">
		<path d="M6652 8928 c-18 -18 -15 -36 9 -48 26 -14 51 4 47 34 -3 24 -37 33
-56 14z"/>
		<path d="M7544 8655 c-94 -17 -203 -56 -272 -97 -39 -22 -169 -144 -402 -374
-294 -291 -351 -342 -387 -353 -24 -6 -143 -18 -266 -26 -251 -15 -317 -28
-427 -86 -75 -38 -223 -159 -289 -234 -30 -35 -33 -42 -27 -83 8 -58 53 -142
150 -277 l78 -110 -176 -171 c-168 -163 -176 -173 -176 -210 0 -27 7 -45 27
-66 25 -26 25 -29 10 -46 -9 -10 -17 -23 -17 -28 0 -6 -15 -17 -32 -25 -18 -8
-37 -24 -43 -36 -5 -13 -22 -24 -41 -28 -41 -7 -82 -39 -86 -66 -2 -18 -11
-22 -47 -23 -35 -2 -49 -9 -72 -34 -18 -20 -29 -43 -29 -62 0 -27 -3 -30 -31
-30 -21 0 -40 -10 -61 -30 -16 -17 -34 -27 -39 -24 -19 12 -80 -7 -101 -32
l-22 -24 -21 20 c-31 29 -85 36 -123 16 -18 -9 -32 -20 -32 -24 0 -4 -47 -7
-105 -7 -81 0 -105 3 -105 13 0 26 -34 71 -62 83 -15 6 -63 46 -106 89 -77 77
-139 117 -237 150 l-50 17 3 124 c2 89 -1 140 -12 182 -67 246 -302 426 -558
427 l-57 0 26 68 c31 82 42 231 23 320 l-12 57 35 53 c36 53 80 157 75 174 -8
23 -293 -226 -414 -361 -183 -204 -300 -372 -415 -596 -172 -334 -266 -654
-300 -1018 -14 -157 -7 -490 15 -635 113 -752 499 -1393 1106 -1838 373 -274
802 -445 1280 -510 170 -23 510 -23 680 0 695 94 1302 421 1754 946 l90 105
-42 3 c-24 2 -68 -4 -100 -13 -53 -16 -57 -16 -67 0 -95 156 -158 221 -270
275 -123 59 -235 73 -366 46 -79 -17 -185 -67 -238 -113 l-39 -33 -11 49 c-23
107 -91 231 -167 303 -44 41 -139 95 -209 118 l-62 21 -7 72 c-9 101 -34 179
-83 259 -18 30 -23 52 -23 111 0 82 -19 166 -55 245 l-25 54 35 33 c31 28 41
53 36 91 -1 6 17 18 39 27 31 12 44 25 56 53 9 20 13 45 11 55 -4 15 3 21 33
29 43 12 80 51 80 84 0 13 12 31 29 44 16 12 32 35 36 52 4 16 11 30 16 30 5
0 14 10 20 23 6 13 25 28 42 33 24 7 34 17 42 42 9 33 22 38 60 23 11 -5 31
-4 44 1 13 5 95 79 181 166 86 86 164 163 173 171 15 12 23 8 69 -27 86 -65
204 -141 260 -167 90 -42 102 -38 206 68 202 204 244 308 262 649 6 106 17
219 24 251 l14 59 359 361 c332 335 362 368 396 437 52 105 76 211 83 365 7
131 -8 331 -25 348 -34 34 -372 48 -517 22z m386 -65 c30 -6 56 -13 59 -16 3
-3 -86 -97 -199 -208 l-206 -201 -309 -184 c-526 -313 -545 -325 -532 -333 6
-4 51 -19 100 -34 53 -17 87 -32 87 -41 0 -36 -812 -893 -846 -893 -7 0 -36
29 -64 64 -29 36 -59 67 -68 71 -10 4 -71 -49 -191 -170 -97 -96 -183 -175
-192 -175 -8 0 -47 33 -88 74 -62 62 -71 76 -63 92 6 11 90 98 186 194 97 96
176 179 176 184 0 5 -24 41 -54 80 -65 86 -157 227 -182 280 l-19 39 90 84
c202 190 285 221 665 243 262 15 224 -8 605 371 179 178 352 342 386 365 70
49 173 89 279 108 90 17 307 20 380 6z m-653 -748 c-75 -92 -132 -170 -129
-174 4 -4 45 -15 92 -26 52 -11 85 -23 85 -31 0 -7 -25 -26 -55 -43 -30 -17
-148 -83 -262 -148 -113 -66 -230 -131 -259 -145 l-53 -27 19 28 c10 16 46 58
80 94 111 115 195 214 192 223 -1 5 -40 21 -87 36 -46 14 -85 31 -87 36 -3 10
82 63 392 245 77 46 154 91 170 101 17 10 31 14 33 8 2 -5 -57 -85 -131 -177z
m-1295 -1456 c-82 -83 -155 -161 -161 -173 -19 -37 -12 -71 20 -108 28 -32 30
-39 20 -61 -6 -14 -25 -30 -41 -35 -21 -8 -32 -20 -38 -42 -7 -28 -14 -33 -52
-39 -52 -9 -80 -33 -89 -79 -6 -30 -12 -34 -49 -42 -46 -9 -82 -45 -82 -83 0
-21 -5 -24 -41 -24 -31 0 -47 -6 -70 -29 -16 -16 -29 -37 -29 -45 0 -13 -11
-16 -51 -16 -43 0 -55 -5 -81 -30 l-30 -31 -74 16 c-64 15 -75 21 -92 50 l-20
33 25 25 c31 30 35 92 9 132 -15 23 -15 28 -1 47 8 13 15 37 15 55 0 29 3 33
26 33 34 0 84 50 84 84 0 19 8 30 26 38 32 15 54 56 54 103 0 28 4 35 19 35
37 0 73 42 78 93 5 46 7 47 39 47 38 0 74 29 74 59 0 32 26 45 52 27 12 -9 38
-16 57 -16 31 0 50 16 196 160 l162 160 97 -97 98 -96 -150 -151z m-2750 47
c38 -34 12 -93 -41 -93 -34 0 -51 17 -51 51 0 52 54 77 92 42z m212 -1014 c37
-29 37 -89 0 -118 -15 -12 -37 -21 -49 -21 -12 0 -34 9 -49 21 -37 29 -37 89
0 118 15 12 37 21 49 21 12 0 34 -9 49 -21z m470 -546 c1 -1 71 -8 156 -15
170 -14 163 -19 -43 -33 -59 -4 -109 -11 -112 -15 -3 -4 -10 -75 -17 -156 -7
-82 -14 -140 -16 -129 -1 11 -8 81 -15 155 l-12 135 -143 12 c-78 6 -148 13
-155 16 -7 2 35 7 93 11 58 4 128 9 156 13 l51 5 7 97 c15 214 19 221 34 56 8
-82 15 -151 16 -152z m1254 225 c34 -34 -6 -90 -48 -68 -35 19 -20 80 20 80 9
0 21 -5 28 -12z m-1823 -593 c0 -25 -4 -31 -27 -33 -22 -3 -29 2 -34 22 -8 34
3 48 34 44 23 -2 27 -8 27 -33z m2712 -696 c16 -16 5 -39 -17 -39 -23 0 -34
16 -26 35 6 18 28 19 43 4z"/>
		<path d="M5890 8426 c-27 -33 18 -72 48 -42 13 13 14 20 6 34 -15 23 -38 26
-54 8z"/>
		<path d="M4651 8380 c-1 -3 -10 -106 -21 -229 -10 -123 -21 -225 -23 -228 -3
-2 -97 -11 -211 -20 -113 -10 -206 -20 -206 -23 0 -3 93 -13 206 -23 114 -9
209 -18 211 -21 3 -3 14 -105 24 -227 10 -122 20 -224 22 -225 2 -2 13 98 24
222 12 124 23 227 25 230 3 2 100 12 216 21 117 9 209 20 204 24 -4 3 -99 13
-211 22 -112 9 -206 18 -208 21 -2 2 -13 93 -23 203 -20 209 -26 261 -29 253z"/>
		<path d="M5577 8363 c-12 -12 -7 -50 8 -63 17 -14 51 -5 59 16 13 35 -41 73
-67 47z"/>
		<path d="M7805 7387 c-10 -8 -16 -23 -13 -38 2 -19 9 -24 33 -24 25 0 31 4 33
27 4 34 -26 54 -53 35z"/>
		<path d="M3947 7014 c-4 -4 -7 -18 -7 -31 0 -21 4 -24 28 -21 21 2 27 8 27 28
0 18 -6 26 -20 28 -12 2 -24 0 -28 -4z"/>
		<path d="M4613 6670 c-72 -30 -45 -140 34 -140 36 0 73 38 73 75 0 49 -59 85
-107 65z"/>
		<path d="M8683 6503 c-7 -3 -13 -13 -13 -23 0 -19 17 -30 38 -23 6 3 12 13 12
23 0 19 -17 30 -37 23z"/>
		<path d="M8495 6367 c-10 -8 -16 -23 -13 -38 2 -19 9 -24 33 -24 25 0 31 4 33
27 4 34 -26 54 -53 35z"/>
		<path d="M7655 6220 c-25 -27 -10 -71 27 -84 53 -19 91 50 50 87 -25 23 -55
21 -77 -3z"/>
		<path d="M8684 6225 c-8 -20 4 -35 27 -35 14 0 19 7 19 25 0 18 -5 25 -20 25
-11 0 -23 -7 -26 -15z"/>
		<path d="M6588 5378 c-42 -33 -15 -108 38 -108 28 0 64 32 64 58 0 50 -63 80
-102 50z"/>
		<path d="M5964 5205 c-4 -9 -2 -21 4 -27 15 -15 44 -1 40 19 -4 23 -36 29 -44
8z"/>
		<path d="M7609 5105 l-4 -60 -48 -7 c-59 -8 -73 -18 -26 -18 72 0 79 -7 80
-69 l1 -56 9 54 c5 30 11 56 13 58 2 3 30 7 62 10 47 5 54 8 34 14 -14 4 -42
7 -62 8 -36 1 -37 2 -43 49 -10 78 -12 80 -16 17z"/>
		<path d="M5750 2000 c0 -421 2 -433 62 -470 26 -15 50 -20 111 -20 l77 0 0 40
0 40 -64 0 c-45 0 -69 5 -80 16 -14 13 -16 63 -16 395 l0 379 -45 0 -45 0 0
-380z"/>
		<path d="M6650 2270 l0 -110 -238 0 c-351 0 -342 9 -342 -328 0 -242 3 -260
56 -301 26 -20 38 -21 320 -21 l294 0 0 435 0 435 -45 0 -45 0 0 -110z m-10
-219 c6 -12 10 -102 10 -222 0 -174 -2 -205 -17 -221 -15 -16 -35 -18 -229
-18 -180 0 -215 2 -228 16 -14 13 -16 48 -16 228 0 151 3 215 12 224 9 9 75
12 235 12 210 0 223 -1 233 -19z"/>
		<path d="M8600 1984 l0 -396 39 -39 c39 -39 39 -39 120 -39 l81 0 0 40 0 39
-67 3 c-61 3 -69 6 -80 28 -10 19 -13 117 -13 393 l0 367 -40 0 -40 0 0 -396z"/>
		<path d="M8940 2335 l0 -45 45 0 45 0 0 45 0 45 -45 0 -45 0 0 -45z"/>
		<path d="M160 1915 l0 -405 45 0 45 0 0 350 c0 193 3 350 8 349 4 0 138 -156
297 -347 l290 -347 68 -3 67 -3 0 406 0 405 -45 0 -45 0 -2 -357 -3 -358 -300
357 -300 358 -62 0 -63 0 0 -405z"/>
		<path d="M3088 2243 c16 -43 82 -225 148 -405 l118 -328 41 0 40 0 64 178
c127 354 183 502 191 502 4 0 63 -153 131 -340 l123 -340 41 0 40 0 124 343
c68 188 135 370 148 405 l23 62 -48 0 -47 0 -116 -321 c-63 -176 -120 -319
-125 -318 -5 2 -61 145 -124 319 l-115 315 -55 3 -55 3 -114 -315 c-122 -337
-127 -349 -135 -326 -3 8 -57 155 -119 325 l-114 310 -46 3 -47 3 28 -78z"/>
		<path d="M6933 2300 c-68 -41 -68 -40 -68 -390 0 -344 0 -345 58 -380 30 -19
53 -20 347 -20 298 0 317 1 348 20 59 36 62 57 62 382 0 327 -2 341 -69 385
-33 23 -38 23 -340 23 -286 0 -308 -1 -338 -20z m645 -82 c9 -9 12 -90 12
-302 0 -255 -2 -292 -17 -308 -15 -17 -38 -18 -301 -18 -252 0 -288 2 -304 17
-17 15 -18 38 -18 300 0 177 4 292 10 304 10 18 24 19 308 19 219 0 301 -3
310 -12z"/>
		<path d="M1173 2140 c-66 -40 -68 -49 -68 -305 0 -201 2 -234 18 -262 33 -61
46 -63 362 -63 l285 0 0 40 0 40 -273 0 c-326 0 -307 -7 -307 118 l0 82 290 0
290 0 0 133 c0 151 -12 187 -71 219 -30 16 -60 18 -264 18 -210 0 -233 -2
-262 -20z m495 -82 c7 -7 12 -44 12 -95 l0 -83 -245 0 -245 0 0 76 c0 122 -16
114 243 114 160 0 226 -3 235 -12z"/>
		<path d="M1853 2128 c7 -18 65 -165 128 -325 l114 -293 41 0 42 0 113 265 c63
146 117 265 120 265 6 0 204 -428 233 -502 9 -24 16 -28 52 -28 37 0 43 3 52
28 6 15 60 159 121 320 61 161 111 295 111 298 0 3 -21 4 -47 2 l-46 -3 -91
-237 c-50 -131 -93 -238 -97 -238 -3 0 -55 107 -116 238 l-110 237 -60 3 c-57
3 -60 2 -72 -25 -7 -15 -54 -122 -103 -238 -50 -115 -93 -213 -97 -218 -4 -4
-52 103 -107 238 l-99 245 -48 0 -47 0 13 -32z"/>
		<path d="M4462 2140 c-68 -41 -72 -60 -72 -303 0 -244 6 -273 62 -307 31 -19
50 -20 273 -20 345 0 335 -10 335 322 0 239 -5 263 -69 305 -33 22 -41 23
-265 23 -213 0 -234 -2 -264 -20z m498 -89 c6 -12 10 -102 10 -225 0 -173 -2
-207 -16 -220 -23 -24 -435 -24 -458 0 -14 13 -16 48 -16 228 0 151 3 215 12
224 9 9 75 12 235 12 210 0 223 -1 233 -19z"/>
		<path d="M5241 2142 c-68 -36 -71 -54 -71 -359 l0 -273 45 0 45 0 0 268 c0
195 3 271 12 280 9 9 68 12 205 12 l193 0 0 45 0 45 -198 0 c-172 0 -202 -2
-231 -18z"/>
		<path d="M7810 1835 l0 -325 40 0 40 0 0 258 c0 217 2 261 16 280 15 22 19 22
234 22 215 0 219 0 234 -22 14 -19 16 -63 16 -280 l0 -258 40 0 40 0 0 278 c0
396 24 372 -385 372 l-275 0 0 -325z"/>
		<path d="M8940 1835 l0 -325 45 0 45 0 0 325 0 325 -45 0 -45 0 0 -325z"/>
		<path d="M9160 1835 l0 -325 45 0 45 0 0 261 c0 160 4 268 10 280 10 18 23 19
233 19 160 0 226 -3 235 -12 9 -9 12 -85 12 -280 l0 -268 45 0 45 0 0 273 c0
399 23 377 -387 377 l-283 0 0 -325z"/>
		<path d="M10019 2137 c-64 -42 -69 -66 -69 -305 0 -238 6 -268 62 -302 31 -19
50 -20 321 -20 l287 0 0 40 0 40 -274 0 c-236 0 -277 2 -290 16 -12 12 -16 36
-16 100 l0 84 291 0 290 0 -3 144 c-3 138 -4 146 -28 171 -49 53 -61 55 -308
55 -221 0 -230 -1 -263 -23z m501 -86 c5 -11 10 -54 10 -95 l0 -76 -245 0
-245 0 0 76 c0 122 -16 114 245 114 212 0 225 -1 235 -19z"/>
	</g>
</svg>
